<?xml version="1.0" encoding="utf-8"?>
<!-- Generator: Adobe Illustrator 21.0.1, SVG Export Plug-In . SVG Version: 6.00 Build 0)  -->
<svg version="1.1" id="Layer_1" xmlns="http://www.w3.org/2000/svg" xmlns:xlink="http://www.w3.org/1999/xlink" x="0px" y="0px"
	 viewBox="0 0 800 800" style="enable-background:new 0 0 800 800;" xml:space="preserve">
<style type="text/css">
	.st0{fill:#FFFFFF;}
	.st1{fill:none;stroke:#000000;stroke-width:4;stroke-linejoin:bevel;stroke-miterlimit:10;}
	.st2{display:none;}
	.st3{display:inline;}
	.st4{fill:none;stroke:#F7941D;stroke-miterlimit:10;}
	.st5{fill:#3B4F42;}
	.st6{fill:#D3C9C0;}
	.st7{fill:#24382A;}
	.st8{fill:#3E6048;}
	.st9{fill:#729B7E;}
	.st10{fill:#96775F;}
	.st11{fill:#AD9986;}
	.st12{fill:#EEE8E4;}
	.st13{fill:none;stroke:#EEE8E4;stroke-width:5;stroke-miterlimit:10;}
</style>
<g>
	<g>
		<g>
			<g>
				<path class="st13" d="M24.3,376.8v257h206.5V517.9h14.8c64,0,115.9,51.9,115.9,115.9c0-64,51.9-115.9,115.9-115.9h14.9V376.8
					H24.3z M129.7,608.8c-18.5,0-33.5-15-33.5-33.5c0-18.5,15-33.5,33.5-33.5s33.5,15,33.5,33.5
					C163.2,593.8,148.2,608.8,129.7,608.8z M163.2,463.3c0,0.2,0,0.3,0,0.5c0,0.2,0,0.3,0,0.5c0,0.4,0,0.7-0.1,1.1
					c0,0.2,0,0.3-0.1,0.5c-0.1,0.6-0.1,1.3-0.3,1.9c-0.1,0.4-0.1,0.8-0.2,1.2c-0.1,0.5-0.2,1-0.4,1.5c-0.1,0.5-0.3,1-0.4,1.5
					c0,0.1,0,0.2-0.1,0.2c-0.1,0.3-0.2,0.7-0.3,1c-0.2,0.7-0.5,1.3-0.8,2c-3.9,9.3-11.8,16.5-21.6,19.3c-0.3,0.1-0.7,0.2-1,0.3
					c-0.5,0.1-1,0.2-1.5,0.3c-0.4,0.1-0.8,0.2-1.2,0.2c-0.2,0-0.3,0.1-0.5,0.1c-0.3,0-0.5,0.1-0.8,0.1c-0.2,0-0.4,0-0.5,0.1
					c-0.2,0-0.4,0-0.6,0.1c-0.3,0-0.7,0.1-1.1,0.1c-0.2,0-0.3,0-0.5,0c-0.2,0-0.3,0-0.5,0c-0.4,0-0.7,0-1.1,0c-0.4,0-0.8,0-1.2,0
					c-0.3,0-0.5,0-0.7,0c-0.2,0-0.4,0-0.7,0c-0.2,0-0.4,0-0.5,0c-0.2,0-0.5,0-0.7-0.1c-0.6-0.1-1.3-0.2-1.9-0.3
					c-0.3-0.1-0.6-0.1-0.9-0.2c-1.7-0.3-3.3-0.8-4.9-1.4c-0.5-0.2-1-0.4-1.5-0.6c-0.4-0.2-0.9-0.4-1.3-0.6c-0.1,0-0.1-0.1-0.2-0.1
					c-0.4-0.2-0.7-0.4-1.1-0.6c-0.8-0.4-1.7-0.9-2.5-1.4c-0.5-0.3-0.9-0.6-1.3-0.9c-0.2-0.2-0.4-0.3-0.7-0.5
					c-0.2-0.2-0.4-0.3-0.6-0.5c-0.2-0.2-0.4-0.3-0.6-0.5c-0.2-0.2-0.4-0.3-0.6-0.5c-0.1-0.1-0.2-0.2-0.3-0.3
					c-0.2-0.2-0.4-0.4-0.7-0.6c-0.7-0.7-1.4-1.4-2.1-2.1c-0.1-0.1-0.2-0.3-0.3-0.4c-0.2-0.2-0.4-0.4-0.6-0.7
					c-0.2-0.3-0.4-0.5-0.7-0.8c-0.2-0.3-0.4-0.6-0.6-0.9c-1.2-1.7-2.3-3.5-3.2-5.4c-0.1-0.2-0.2-0.5-0.3-0.7
					c-0.3-0.8-0.6-1.5-0.9-2.3c-0.1-0.3-0.2-0.5-0.3-0.8c-0.2-0.7-0.5-1.4-0.6-2.2c-0.1-0.3-0.1-0.5-0.2-0.8
					c-0.1-0.3-0.1-0.6-0.2-0.9c0-0.1,0-0.1,0-0.2c0-0.3-0.1-0.5-0.1-0.8c-0.2-1.1-0.3-2.2-0.4-3.3c0-0.4,0-0.7,0-1.1s0-0.7,0-1.1
					c0-0.2,0-0.4,0-0.5c0-0.2,0-0.4,0-0.6c0-0.3,0-0.5,0-0.8c0-0.4,0.1-0.8,0.1-1.3c0-0.2,0-0.4,0.1-0.6c0-0.4,0.1-0.8,0.2-1.1
					c0-0.3,0.1-0.5,0.1-0.8c0.1-0.4,0.1-0.8,0.2-1.1c0.1-0.6,0.3-1.1,0.4-1.7c0.1-0.5,0.2-0.9,0.4-1.4c0.1-0.5,0.3-0.9,0.5-1.4
					c0.1-0.3,0.2-0.7,0.4-1c3.5-9,10.8-16.2,20-19.4c0.6-0.2,1.2-0.4,1.8-0.6c0.3-0.1,0.5-0.2,0.8-0.2c0.2-0.1,0.4-0.1,0.6-0.1
					c0.2-0.1,0.4-0.1,0.6-0.2c0.2-0.1,0.4-0.1,0.7-0.1c0.4-0.1,0.8-0.2,1.2-0.2c0.6-0.1,1.2-0.2,1.9-0.3c0.2,0,0.3,0,0.5-0.1
					c0.2,0,0.4,0,0.6,0c0.2,0,0.4,0,0.5,0c0.2,0,0.3,0,0.5,0c0.2,0,0.3,0,0.5,0c0.2,0,0.4,0,0.5,0c0.2,0,0.4,0,0.5,0
					c0.4,0,0.8,0,1.1,0c0.3,0,0.5,0,0.8,0c0.2,0,0.4,0,0.6,0c0.3,0,0.5,0,0.8,0.1c0.3,0,0.6,0.1,0.9,0.1c0.5,0.1,0.9,0.1,1.4,0.2
					c0.3,0.1,0.7,0.1,1,0.2c0.3,0.1,0.6,0.1,0.9,0.2c0.3,0.1,0.5,0.1,0.8,0.2c0.5,0.1,1.1,0.3,1.6,0.5c0.3,0.1,0.6,0.2,0.8,0.3
					c0.7,0.3,1.5,0.5,2.2,0.8c0.5,0.2,1,0.4,1.5,0.7c0.7,0.3,1.5,0.7,2.2,1.1c0.5,0.3,0.9,0.5,1.4,0.8c0.1,0,0.1,0.1,0.2,0.1
					c0.4,0.2,0.7,0.5,1.1,0.7c0,0,0.1,0,0.1,0.1c0.4,0.3,0.8,0.6,1.1,0.8c0.4,0.3,0.8,0.6,1.2,1c0.4,0.3,0.8,0.6,1.1,1c0,0,0,0,0,0
					c0.3,0.3,0.6,0.5,0.9,0.8c0.2,0.2,0.4,0.4,0.6,0.6c0.2,0.2,0.5,0.5,0.7,0.7c0.4,0.4,0.8,0.9,1.1,1.3c0.3,0.3,0.5,0.7,0.8,1
					c0.2,0.3,0.4,0.6,0.6,0.9c0.2,0.3,0.4,0.6,0.6,0.8c0.2,0.3,0.4,0.6,0.6,1c0,0,0.1,0.1,0.1,0.1c0.2,0.3,0.4,0.6,0.5,0.9
					c0.5,0.8,0.9,1.7,1.3,2.6c0.2,0.4,0.3,0.7,0.5,1.1c0,0,0,0.1,0.1,0.2c0.2,0.4,0.3,0.8,0.4,1.2c0.1,0.3,0.3,0.7,0.4,1
					c0.2,0.5,0.3,1,0.4,1.5c0.1,0.4,0.2,0.7,0.3,1.1c0.3,1.3,0.5,2.6,0.7,3.9c0,0.2,0.1,0.5,0.1,0.7c0,0.4,0.1,0.8,0.1,1.1
					c0,0.2,0,0.5,0,0.7c0,0.4,0,0.9,0,1.3C163.2,462.5,163.2,462.9,163.2,463.3z M328.6,494.6h-59.1v-59.1h59.1V494.6z M456.7,494.6
					h-59.2v-59.1h59.2V494.6z"/>
			</g>
		</g>
		<g>
			<polygon class="st13" points="691,376.8 691,633.8 490.9,633.8 490.9,376.8 568,376.8 568,488.9 624.5,488.9 624.5,376.8 			"/>
		</g>
	</g>
</g>
<polygon class="st13" points="784.5,170 784.5,260.1 691.4,260.1 691.4,376.8 624.8,376.8 624.8,257 596,230.1 548.2,229.6 
	503.8,229.2 503.8,289.5 548.2,289.5 568.3,309.6 568.3,376.8 23.3,376.8 83.7,316.4 221.8,316.4 221.8,170 340.2,170 340.2,323.3 
	378.6,323.3 378.6,170 "/>
<g>
	<g>
		<path class="st13" d="M162.2,462.2c0,18.5-15,33.5-33.5,33.5s-33.5-15-33.5-33.5c0-18.5,15-33.5,33.5-33.5
			S162.2,443.7,162.2,462.2z"/>
		<path class="st13" d="M378.6,170v153.2h-38.3V170H221.8v146.4H83.7l-60.4,60.4v257h221.3V517.9c64,0,115.9,51.9,115.9,115.9
			c0-64,51.9-115.9,115.9-115.9v115.9h215V260.1h93.1v-90H378.6z M130.9,495.6c-20.2,1.3-36.9-15.4-35.6-35.6
			c1.1-16.7,14.6-30.2,31.3-31.3c20.2-1.3,36.9,15.4,35.6,35.6C161.1,481,147.6,494.6,130.9,495.6z"/>
		<path class="st13" d="M162.2,462.2c0,18.5-15,33.5-33.5,33.5s-33.5-15-33.5-33.5c0-18.5,15-33.5,33.5-33.5
			S162.2,443.7,162.2,462.2z"/>
		<circle class="st13" cx="128.7" cy="575.3" r="33.5"/>
		<path class="st13" d="M244.6,633.8V517.9c64,0,115.9,51.9,115.9,115.9"/>
		<path class="st13" d="M360.5,633.8c0-64,51.9-115.9,115.9-115.9v115.9"/>
		<g>
			<polygon class="st13" points="503.8,229.2 503.8,289.5 548.2,289.5 568.3,309.6 568.3,488.9 624.8,488.9 624.8,257 596,230.1 			
				"/>
			<line class="st13" x1="548.2" y1="289.5" x2="548.2" y2="229.6"/>
			<line class="st13" x1="568.3" y1="309.6" x2="624.8" y2="309.6"/>
			<line class="st13" x1="568.3" y1="376.9" x2="624.8" y2="376.9"/>
			<line class="st13" x1="568.3" y1="433.2" x2="624.8" y2="433.2"/>
			<polyline class="st13" points="503.8,244.5 588.4,244.5 610.5,266.5 610.5,488.9 			"/>
		</g>
		<rect x="476.4" y="517.9" class="st13" width="14.8" height="115.9"/>
		<rect x="229.7" y="517.9" class="st13" width="14.8" height="115.9"/>
		<line class="st13" x1="567.1" y1="633.8" x2="567.1" y2="548.9"/>
		<polyline class="st13" points="185.2,517.9 229.7,517.9 229.7,474.6 		"/>
		<polyline class="st13" points="23.3,376.8 270.4,376.8 270.4,320.2 		"/>
		<g>
			<rect x="268.5" y="435.4" class="st13" width="59.1" height="59.1"/>
			<polyline class="st13" points="280.1,494.6 280.1,448.7 316.1,448.7 316.1,494.6 			"/>
		</g>
		<g>
			<rect x="396.5" y="435.4" class="st13" width="59.1" height="59.1"/>
			<polyline class="st13" points="408.2,494.6 408.2,448.7 444.1,448.7 444.1,494.6 			"/>
		</g>
		<line class="st13" x1="360.5" y1="376.8" x2="360.5" y2="437.5"/>
		<line class="st13" x1="379.2" y1="376.8" x2="341.8" y2="376.8"/>
		<polyline class="st13" points="445.3,171.3 445.3,325.7 491.2,325.7 		"/>
		<polyline class="st13" points="491.2,517.9 491.2,474.6 491.2,376.8 445.3,376.8 		"/>
	</g>
</g>
<line class="st13" x1="271.4" y1="170" x2="271.4" y2="248.5"/>
</svg>
